<svg width="1500" height="500" viewBox="0 0 1500 500" fill="none" xmlns="http://www.w3.org/2000/svg">
  <defs>
    <linearGradient id="premium_gold" x1="0" y1="0" x2="868" y2="1543" gradientUnits="userSpaceOnUse">
      <stop offset="0" stop-color="#BF953F"/>
      <stop offset="0.25" stop-color="#FCF6BA"/>
      <stop offset="0.5" stop-color="#BF953F"/>
      <stop offset="0.75" stop-color="#FBF5B7"/>
      <stop offset="1" stop-color="#AA771C"/>
    </linearGradient>
    <filter id="dropshadow" height="130%">
      <feGaussianBlur in="SourceAlpha" stdDeviation="3"/>
      <feOffset dx="2" dy="2" result="offsetblur"/>
      <feComponentTransfer>
        <feFuncA type="linear" slope="0.5"/>
      </feComponentTransfer>
      <feMerge> 
        <feMergeNode/>
        <feMergeNode in="SourceGraphic"/> 
      </feMerge>
    </filter>
  </defs>
  
  <!-- Background -->
  <rect width="1500" height="500" fill="#0A0A0A"/>
  
  <!-- Icon Group (Scaled and Positioned) -->
  <g transform="translate(100, 50) scale(0.25)">
    <path d="M497.206 461.386C496.413 415.875 496.413 415.874 504.227 417.838C508.525 418.918 541.204 429.88 576.846 442.196C641.634 464.584 738.604 496.364 819.778 521.812C843.479 529.243 864.118 536.446 865.641 537.821C870.086 541.833 867.769 799.279 862.68 866.772C846.203 1085.33 793.037 1217.34 660.694 1368.31C638.543 1393.58 579.72 1445 538.743 1474.91C486.173 1513.28 482.282 1515.96 457.776 1530.57C446.043 1537.57 440.34 1541.93 434.386 1542.42L434 1542.45L433.614 1542.42C427.66 1541.93 421.956 1537.57 410.223 1530.57C385.718 1515.96 381.827 1513.28 329.257 1474.91C288.28 1445 229.457 1393.58 207.306 1368.31C74.9625 1217.34 21.7967 1085.33 5.31959 866.772C0.231348 799.28 -2.08601 541.84 2.35845 537.821C3.8815 536.446 24.5205 529.243 48.2223 521.812C129.396 496.364 226.366 464.584 291.154 442.196C326.795 429.88 359.474 418.919 363.773 417.838C371.587 415.874 371.587 415.875 370.794 461.386L370.001 506.898L344.144 515.195C329.922 519.759 306.651 526.36 292.43 529.864C270.484 535.272 266.022 537.377 262.929 543.776C260.562 548.673 256.03 552.003 250.001 553.276C244.893 554.354 213.564 564.072 180.381 574.872C147.198 585.672 112.906 596.684 104.178 599.342C81.6863 606.196 83.2901 796.225 107.09 944.206C107.09 944.206 116.249 988.465 121.311 1010.62C133.35 1063.31 140.221 1086.78 150.788 1111.31C155.559 1122.38 161.407 1135.98 163.785 1141.52C205.171 1237.9 272.354 1319.9 370.001 1393.21C409.316 1422.72 423.004 1433.13 433.614 1432.74H433.994C433.865 1432.73 434.122 1432.75 433.994 1432.74H434.386C444.996 1433.13 458.683 1422.72 497.998 1393.21C595.646 1319.9 662.829 1237.9 704.215 1141.52C706.593 1135.98 712.441 1122.39 717.212 1111.31C727.779 1086.78 734.65 1063.31 746.689 1010.62C751.749 988.472 760.904 944.236 760.91 944.206C784.71 796.224 786.314 606.194 763.822 599.342C755.093 596.684 720.802 585.672 687.619 574.872C654.435 564.072 623.106 554.354 617.999 553.276C612.159 552.043 607.722 548.879 605.299 544.231L604.777 543.189C601.683 537.242 596.83 535.103 575.57 529.864C561.349 526.36 538.077 519.759 523.856 515.195L497.998 506.898L497.206 461.386Z" fill="url(#premium_gold)"/>
    <path d="M495.75 1000.55C500.401 1000.56 501.113 1241.08 496.534 1265.55C493.497 1281.77 465.03 1332.53 445.505 1356.54C439.982 1363.33 434 1366.06 434 1366.06C434 1366.06 428.017 1363.33 422.494 1356.54C402.97 1332.53 374.503 1281.77 371.466 1265.55C366.887 1241.08 367.599 1000.57 372.25 1000.55C374.277 1000.55 386.883 1009.99 400.262 1021.53L424.589 1042.52L426.025 1161.78C427.243 1262.86 428.461 1290.17 434 1291.17C439.539 1290.17 440.757 1262.86 441.975 1161.78L443.411 1042.52L467.737 1021.53C481.117 1009.99 493.723 1000.55 495.75 1000.55Z" fill="url(#premium_gold)"/>
    <path d="M211.772 928.626C214.987 928.628 262.015 946.599 309.668 966.034C329.779 974.237 329.78 974.237 331.347 1009.69C333.976 1069.17 334.408 1173.18 332.025 1172.86C330.787 1172.7 319.435 1168.09 306.796 1162.62C294.047 1157.11 267.179 1140.87 246.462 1126.16L209.113 1099.64L207.675 1023.48C206.102 940.113 206.6 928.626 211.772 928.626Z" fill="url(#premium_gold)"/>
    <path d="M656.227 928.626C661.4 928.626 661.897 940.111 660.325 1023.48L658.887 1099.64L621.538 1126.16C600.821 1140.87 573.953 1157.11 561.204 1162.62C548.563 1168.09 537.211 1172.7 535.975 1172.86C533.592 1173.18 534.024 1069.17 536.653 1009.69C538.22 974.237 538.221 974.237 558.332 966.034C605.985 946.599 653.012 928.628 656.227 928.626Z" fill="url(#premium_gold)"/>
    <path d="M385.148 641.593C391.676 637.313 391.676 637.312 391.378 724.971C391.079 812.63 391.08 812.631 377.667 819.232C370.288 822.864 331.406 841.258 291.259 860.109C251.111 878.961 215.881 895.662 212.969 897.222C207.911 899.933 207.675 897.561 207.675 843.83C207.675 787.601 207.676 787.601 223.89 765.333C247.741 732.574 284.15 698.474 295.275 698.473C296.224 698.473 306.314 692.181 317.699 684.492C329.083 676.802 347.448 664.968 358.51 658.192C369.57 651.418 381.556 643.948 385.148 641.593Z" fill="url(#premium_gold)"/>
    <path d="M476.622 724.971C476.324 637.312 476.324 637.313 482.852 641.593C486.443 643.948 498.43 651.418 509.49 658.192C520.551 664.968 538.917 676.802 550.301 684.492C561.685 692.181 571.775 698.472 572.725 698.473C583.849 698.473 620.258 732.574 644.11 765.333C660.324 787.601 660.325 787.601 660.325 843.83C660.325 897.562 660.089 899.933 655.031 897.222C652.119 895.662 616.888 878.961 576.741 860.109C536.594 841.258 497.711 822.863 490.333 819.232C476.92 812.631 476.92 812.63 476.622 724.971Z" fill="url(#premium_gold)"/>
    <path d="M434 526.559C452.823 525.265 466.759 530.915 504.98 542.179C529.583 549.429 551.975 555.994 554.741 556.768C558.985 557.955 559.768 561.709 559.768 580.855C559.768 596.003 558.673 603.534 556.471 603.534C553.792 603.534 484.381 582.875 449.446 571.68C444.429 570.073 440.182 569.21 434.386 569.516V569.562C434.256 569.553 434.128 569.547 434 569.539C433.872 569.547 433.743 569.553 433.614 569.562V569.516C427.818 569.21 423.57 570.073 418.554 571.68C383.618 582.875 314.207 603.534 311.529 603.534C309.327 603.533 308.232 596.002 308.232 580.855C308.232 561.709 309.015 557.955 313.259 556.768C316.024 555.994 338.417 549.429 363.02 542.179C401.241 530.915 415.177 525.265 434 526.559Z" fill="url(#premium_gold)"/>
    <path d="M445.096 433.712C465.578 426.769 464.959 425.594 464.959 471.366V511.473H403.041V471.366C403.041 425.594 402.423 426.769 422.904 433.712C427.697 435.337 431.157 436.4 434 436.95C436.842 436.4 440.303 435.337 445.096 433.712Z" fill="url(#premium_gold)"/>
    <path d="M434.386 0.366187C437.706 2.08775 441.435 5.98602 446.798 11.6909C475.22 41.9217 494.254 77.1019 499.287 108.706C503.553 135.494 503.728 134.78 487.57 156.501C465.579 186.063 450.593 226.19 450.593 255.516C450.593 271.442 457.313 263.298 461.093 242.79C469.137 199.145 501.704 150.506 531.698 137.341C596.976 108.691 657.869 183.958 609.642 233.683C590.854 253.055 567.201 259.213 570.252 243.938C579.026 200.007 518.941 200.7 493.67 244.821C483.414 262.729 483.491 261.996 491.493 265.534C506.886 272.339 504.385 297.159 487.974 300.445C477.347 302.574 476.641 309.523 485.949 320.358C498.137 334.546 519.546 326.883 519.546 308.333C519.546 298.888 524.125 299.715 535.634 311.24C560.768 336.407 540.343 376.114 504.059 372.624C480.877 370.393 456.339 337.329 456.339 308.321C456.339 303.898 454.676 301.458 451.66 301.458C441.272 301.458 453.324 345.514 469.534 366.795C479.134 379.398 477.496 383.367 453.245 406.275C444.228 414.793 438.894 419.977 434.386 421.727V421.999C434.257 421.959 434.129 421.916 434 421.871C433.871 421.916 433.742 421.959 433.614 421.999V421.727C429.106 419.977 423.771 414.793 414.755 406.275C390.504 383.367 388.866 379.398 398.466 366.795C414.676 345.514 426.728 301.458 416.34 301.458C413.324 301.458 411.661 303.898 411.661 308.321C411.661 337.329 387.123 370.393 363.941 372.624C327.657 376.114 307.232 336.407 332.366 311.24C343.875 299.715 348.454 298.888 348.454 308.333C348.454 326.883 369.863 334.546 382.051 320.358C391.359 309.523 390.652 302.574 380.026 300.445C363.615 297.159 361.114 272.34 376.507 265.534C384.509 261.996 384.586 262.729 374.329 244.821C349.059 200.7 288.974 200.007 297.748 243.938C300.799 259.213 277.146 253.055 258.358 233.683C210.131 183.958 271.024 108.691 336.302 137.341C366.296 150.506 398.862 199.145 406.907 242.79C410.687 263.298 417.407 271.442 417.407 255.516C417.407 226.19 402.421 186.063 380.43 156.501C364.272 134.78 364.447 135.494 368.713 108.706C373.746 77.102 392.78 41.9217 421.201 11.6909C426.565 5.98618 430.294 2.08783 433.614 0.366187V0C433.742 0.0540411 433.871 0.110983 434 0.171792C434.129 0.110969 434.258 0.0540531 434.386 0V0.366187Z" fill="url(#premium_gold)"/>
  </g>
  
  <!-- Text -->
  <text x="450" y="270" font-family="'Segoe UI', Roboto, Helvetica, Arial, sans-serif" font-weight="bold" font-size="120" fill="white" filter="url(#dropshadow)">Jean d'Arc</text>
  <text x="455" y="340" font-family="'Segoe UI', Roboto, Helvetica, Arial, sans-serif" font-size="40" fill="#AAAAAA" letter-spacing="2">DOCUMENTATION AGENT</text>
</svg>
