<?xml version="1.0" encoding="UTF-8" standalone="no"?>
<!-- Created with Inkscape (http://www.inkscape.org/) -->

<svg
   version="1.1"
   id="svg1"
   width="1024"
   height="1024"
   viewBox="0 0 1024 1024"
   sodipodi:docname="icon_jean_d_arc2.svg"
   inkscape:version="1.4.2 (f4327f4, 2025-05-13)"
   xmlns:inkscape="http://www.inkscape.org/namespaces/inkscape"
   xmlns:sodipodi="http://sodipodi.sourceforge.net/DTD/sodipodi-0.dtd"
   xmlns="http://www.w3.org/2000/svg"
   xmlns:svg="http://www.w3.org/2000/svg">
  <defs
     id="defs1" />
  <sodipodi:namedview
     id="namedview1"
     pagecolor="#505050"
     bordercolor="#eeeeee"
     borderopacity="1"
     inkscape:showpageshadow="0"
     inkscape:pageopacity="0"
     inkscape:pagecheckerboard="0"
     inkscape:deskcolor="#505050"
     inkscape:zoom="0.78808594"
     inkscape:cx="512.63445"
     inkscape:cy="512"
     inkscape:window-width="2560"
     inkscape:window-height="1009"
     inkscape:window-x="-8"
     inkscape:window-y="-8"
     inkscape:window-maximized="1"
     inkscape:current-layer="g1" />
  <g
     inkscape:groupmode="layer"
     inkscape:label="Image"
     id="g1">
    <path
       style="fill:#000000"
       d="m 528.41574,690.41071 c -8.52953,-5.0804 -9.88393,-6.0102 -28.18181,-19.34823 -14.26259,-10.39654 -34.73679,-28.26856 -42.44678,-37.05198 -46.06416,-52.47751 -64.56934,-98.36466 -70.30443,-174.3333 -1.77107,-23.46014 -2.57762,-112.94686 -1.03057,-114.34145 0.52998,-0.47775 7.71359,-2.98193 15.96359,-5.56486 28.25384,-8.84575 62.00552,-19.89234 84.55594,-27.6743 12.40577,-4.28113 23.77996,-8.09108 25.27598,-8.46656 2.72003,-0.68269 2.72003,-0.68269 2.44406,15.13712 l -0.27598,15.8198 -9,2.884 c -4.95,1.5862 -13.05,3.88067 -18,5.09882 -7.63858,1.87979 -9.19187,2.61128 -10.26842,4.83572 -0.82375,1.70208 -2.40133,2.85973 -4.5,3.30216 -1.77737,0.3747 -12.68158,3.75272 -24.23158,7.50673 -11.55,3.754 -23.48568,7.58145 -26.52373,8.50543 -7.82893,2.38108 -7.27057,68.43511 1.0133,119.87327 0.52852,3.28181 0.75099,6.1769 0.49437,6.43352 -0.25663,0.25662 -0.0798,0.95799 0.39302,1.55859 0.47278,0.60061 2.30094,7.39201 4.06257,15.09201 4.19037,18.31589 6.58154,26.47323 10.2596,35 1.66071,3.85 3.69666,8.575 4.52435,10.5 14.40487,33.50244 37.78863,62.00421 71.77652,87.48629 21.30033,15.9697 20.98781,15.85499 28.66608,10.52179 65.6006,-45.56511 92.86735,-87.60823 107.33899,-165.50808 6.2809,-33.80962 8.59465,-117.79186 3.30003,-119.78116 -1.26781,-0.47635 -6.1301,-1.90106 -10.8051,-3.16604 -17.81871,-4.82145 -50.40167,-15.95447 -52.3261,-17.8789 -1.75973,-1.75973 -17.79786,-7.55219 -29.4239,-10.62697 -4.29919,-1.13703 -7.19519,-33.04085 -3,-33.04951 0.6875,-10e-4 19.925,6.24307 42.75,13.87664 32.69039,10.93294 67.82639,22.28254 85.84572,27.72982 2.44938,0.74045 1.03189,101.0714 -1.74963,123.83942 -12.63598,103.43166 -46.99638,159.7152 -132.50385,217.04601 -16.65189,11.1647 -14.14251,10.6705 -24.09224,4.7442 z m 4.2709,-60.49375 c -6.79582,-8.34366 -16.70436,-25.98707 -17.76131,-31.62625 -1.59392,-8.50408 -1.34606,-92.11351 0.27307,-92.11351 0.70546,0 5.09296,3.28268 9.75,7.29484 l 8.46734,7.29485 0.5,41.45515 c 0.50393,41.78091 1.00764,47.30329 4.0409,44.30198 0.83631,-0.8275 1.29097,-13.1111 1.60988,-43.49531 0.44444,-42.34214 0.44444,-42.34214 5.56972,-46.84683 13.91999,-12.23448 12.7561,-14.5367 12.97187,25.65881 0.34736,64.71033 1.41133,58.42993 -13.77557,81.31441 -8.16788,12.30784 -7.46239,11.89821 -11.6459,6.76186 z m -40.2709,-67.40379 c -4.4374,-1.91638 -13.78922,-7.55998 -21,-12.673 l -13,-9.21804 -0.5,-26.47247 c -0.54737,-28.98021 -0.37474,-32.97246 1.42569,-32.97246 1.11683,0 17.48673,6.24689 34.07431,13.00305 7,2.85111 7,2.85111 7.5454,15.17403 0.91507,20.6756 1.06571,56.8293 0.23632,56.71838 -0.42995,-0.0575 -4.38172,-1.65927 -8.78172,-3.55949 z m 79.38354,-17.08597 c -0.0641,-11.4125 -0.17655,-27.0233 -0.25,-34.69066 l -0.13354,-13.94066 10.5,-3.93841 c 5.775,-2.16612 15.07859,-5.68032 20.67464,-7.80934 5.59605,-2.12901 10.65855,-3.87093 11.25,-3.87093 0.74265,0 1.07536,9.05478 1.07536,29.26635 v 29.26635 l -11.19523,8.38932 c -6.15738,4.61413 -14.81988,10.14563 -19.25,12.29222 -4.43012,2.1466 -8.83616,4.32655 -9.7912,4.84433 -0.95504,0.51779 -1.96754,0.94143 -2.25,0.94143 -0.28246,0 -0.56598,-9.3375 -0.63003,-20.75 z m 10.52057,-89.34941 -32.09589,-15.8028 -0.18658,-30.65053 c -0.18659,-30.65052 -0.18659,-30.65052 3.59589,-28.37852 2.08036,1.2496 10.75747,6.89257 19.28247,12.53995 33.95757,22.49515 41.92232,31.52026 42.04392,47.64131 0.20159,26.72689 0.18408,29.85152 -0.16892,30.14336 -0.20625,0.17052 -14.81815,-6.80123 -32.47089,-15.49277 z m -124.40411,-4.37507 c 0,-19.54485 0,-19.54485 5.64334,-27.28519 8.30197,-11.38687 20.97487,-23.24033 24.84695,-23.24033 0.33002,0 3.84221,-2.18687 7.80487,-4.85971 3.96266,-2.67284 10.35484,-6.78652 14.20484,-9.14151 3.85,-2.35499 8.02243,-4.95138 9.27208,-5.76976 2.27207,-1.48797 2.27207,-1.48797 2.16832,28.98192 -0.10375,30.46989 -0.10375,30.46989 -4.77208,32.76432 -2.56757,1.26194 -16.1018,7.6559 -30.07605,14.20882 -13.97426,6.55291 -26.23676,12.35806 -27.25,12.90034 -1.76048,0.94218 -1.84227,0.11826 -1.84227,-18.5589 z m 35,-91.40889 c 0,-6.65505 0.27267,-7.95955 1.75,-8.37228 0.9625,-0.2689 8.75653,-2.55093 17.32007,-5.07117 25.76225,-7.5818 19.82535,-7.855 55.92993,2.57382 10.23836,2.95736 19.52369,18.753 11.02379,18.753 -0.58319,0 -9.6678,-2.7 -20.18802,-6 -19.6244,-6.15581 -22.42977,-6.67444 -27.43655,-5.07222 -12.15977,3.89127 -36.31942,11.07222 -37.25146,11.07222 -0.76662,0 -1.14776,-2.61786 -1.14776,-7.88337 z m 33,-38.05761 c 0,-15.91016 -0.21571,-15.50178 6.91336,-13.08835 4.75195,1.60869 5.73861,1.65487 8.72234,0.40818 3.3643,-1.40569 3.3643,-1.40569 3.3643,12.60773 v 14.01342 h -9.5 -9.5 z m 4.07707,-22.62513 c -8.44115,-7.96295 -9.01115,-9.34269 -5.66961,-13.72367 5.64195,-7.39698 9.83695,-22.71022 6.22137,-22.71022 -1.04984,0 -1.62883,0.84784 -1.62883,2.38517 0,10.08306 -8.54048,21.576 -16.60943,22.35132 -12.62925,1.21351 -19.7387,-12.58836 -10.99057,-21.33649 4.00619,-4.00619 5.6,-4.29387 5.6,-1.01078 0,6.44823 7.45189,9.11188 11.6941,4.18002 3.23978,-3.76646 2.99371,-6.18168 -0.70516,-6.92145 -5.71199,-1.1424 -6.58275,-9.76942 -1.22482,-12.13492 2.78557,-1.22981 2.8124,-0.97492 -0.75785,-7.20004 -8.79579,-15.33642 -29.70914,-15.57717 -26.65507,-0.30684 1.0619,5.30952 -7.17114,3.16928 -13.71057,-3.56415 -16.78643,-17.28444 4.40848,-43.44709 27.12948,-33.4882 10.43991,4.57594 21.77545,21.48237 24.57538,36.65306 1.3157,7.12872 3.65451,9.96003 3.65451,4.42404 0,-10.19364 -5.21572,-24.14153 -12.87016,-34.41742 -5.62411,-7.55023 -5.5631,-7.3017 -4.07818,-16.61332 1.75188,-10.98561 8.3766,-23.21372 18.26919,-33.72182 5.95507,-6.32559 6.11356,-6.27687 14.37179,4.41775 14.67803,19.00843 18.89682,34.04889 12.1594,43.34963 -8.53631,11.78403 -17.29165,38.855 -12.84496,39.71579 1.13333,0.21938 2.03625,-1.92341 3.64081,-8.6403 5.7303,-23.98769 17.58092,-36.62105 34.35211,-36.62105 24.90726,0 31.18902,29.28977 8.5,39.63266 -5.94478,2.70995 -6.5,2.48119 -6.5,-2.67811 0,-8.20923 -7.84449,-12.17193 -15.87481,-8.01929 -5.9234,3.06311 -14.39593,15.30783 -11.30492,16.33816 6.6157,2.20524 4.68229,13.22658 -2.32027,13.22658 -3.00602,0 -3.07074,0.5517 -0.54977,4.68618 3.46079,5.67582 9.62098,6.85206 12.05609,2.30201 0.91523,-1.71012 0.74444,-1.99706 -1.22114,-2.05158 -2.28518,-0.0634 -2.28518,-0.0634 -0.0352,-0.96777 1.2375,-0.49742 2.25,-1.57939 2.25,-2.40439 0,-2.47725 4.19408,-0.30906 6.83912,3.53558 3.3817,4.9154 2.64418,11.87821 -1.72049,16.24287 -8.91622,8.91622 -23.67248,0.16155 -27.1633,-16.11558 -0.75104,-3.50208 -1.61972,-5.22732 -2.63201,-5.22732 -3.37273,0 1.06018,16.11233 6.55661,23.83135 2.39043,3.35705 1.83495,4.6244 -5.2562,11.99239 -7.8816,8.1893 -7.52709,8.17539 -15.54664,0.61015 z"
       id="path1" />
  </g>
</svg>
