<svg xmlns="http://www.w3.org/2000/svg" id="svg1" width="1024" height="1024" viewBox="0 0 1024 1024"><g id="g1"><path id="path1" d="M528.416 690.41c-8.53-5.08-9.884-6.01-28.182-19.348-14.263-10.396-34.737-28.268-42.447-37.051-46.064-52.478-64.57-98.365-70.304-174.334-1.771-23.46-2.578-112.947-1.03-114.341.53-.478 7.713-2.982 15.963-5.565 28.254-8.846 62.005-19.892 84.556-27.674 12.405-4.282 23.78-8.091 25.276-8.467 2.72-.683 2.72-.683 2.444 15.137l-.276 15.82-9 2.884c-4.95 1.586-13.05 3.88-18 5.099-7.639 1.88-9.192 2.611-10.269 4.835-.823 1.703-2.401 2.86-4.5 3.303-1.777.374-12.681 3.752-24.231 7.506s-23.486 7.582-26.524 8.506c-7.829 2.38-7.27 68.435 1.013 119.873.529 3.282.751 6.177.495 6.434-.257.256-.08.958.393 1.558.472.6 2.3 7.392 4.062 15.092 4.19 18.316 6.582 26.473 10.26 35 1.66 3.85 3.697 8.575 4.524 10.5 14.405 33.503 37.789 62.004 71.777 87.486 21.3 15.97 20.988 15.855 28.666 10.522 65.6-45.565 92.867-87.608 107.339-165.508 6.28-33.81 8.594-117.792 3.3-119.781-1.268-.476-6.13-1.901-10.805-3.166-17.819-4.821-50.402-15.954-52.326-17.879-1.76-1.76-17.798-7.552-29.424-10.627-4.3-1.137-7.195-33.04-3-33.05.687 0 19.925 6.244 42.75 13.877 32.69 10.933 67.826 22.283 85.845 27.73 2.45.74 1.032 101.071-1.75 123.84-12.635 103.431-46.996 159.715-132.503 217.046-16.652 11.164-14.143 10.67-24.092 4.744m4.27-60.493c-6.795-8.344-16.704-25.987-17.76-31.626-1.595-8.504-1.347-92.114.272-92.114.706 0 5.093 3.283 9.75 7.295l8.468 7.295.5 41.455c.504 41.781 1.007 47.303 4.04 44.302.837-.827 1.292-13.111 1.61-43.495.445-42.342.445-42.342 5.57-46.847 13.92-12.235 12.756-14.537 12.972 25.659.347 64.71 1.411 58.43-13.775 81.314-8.168 12.308-7.463 11.898-11.646 6.762m-40.27-67.404c-4.438-1.916-13.79-7.56-21-12.673l-13-9.218-.5-26.472c-.548-28.98-.375-32.973 1.425-32.973 1.117 0 17.487 6.247 34.075 13.003 7 2.851 7 2.851 7.545 15.174.915 20.676 1.066 56.83.236 56.719-.43-.058-4.381-1.66-8.781-3.56m79.383-17.086a10774 10774 0 0 0-.25-34.69l-.133-13.941 10.5-3.939c5.775-2.166 15.078-5.68 20.674-7.809s10.659-3.87 11.25-3.87c.743 0 1.076 9.054 1.076 29.266v29.266l-11.195 8.39c-6.158 4.613-14.82 10.145-19.25 12.291s-8.837 4.327-9.792 4.845-1.967.941-2.25.941-.566-9.337-.63-20.75m10.52-89.35-32.095-15.802-.187-30.65c-.186-30.651-.186-30.651 3.596-28.38 2.08 1.25 10.758 6.894 19.283 12.54 33.957 22.496 41.922 31.521 42.044 47.642.201 26.727.184 29.852-.17 30.144-.206.17-14.817-6.802-32.47-15.493m-124.403-4.374c0-19.545 0-19.545 5.643-27.285 8.302-11.387 20.975-23.24 24.847-23.24.33 0 3.842-2.188 7.805-4.86s10.355-6.787 14.205-9.142 8.022-4.951 9.272-5.77c2.272-1.488 2.272-1.488 2.168 28.982s-.104 30.47-4.772 32.764c-2.568 1.262-16.102 7.656-30.076 14.21-13.974 6.552-26.237 12.357-27.25 12.9-1.76.942-1.842.118-1.842-18.56m35-91.41c0-6.654.272-7.959 1.75-8.371.962-.27 8.756-2.551 17.32-5.072 25.762-7.581 19.825-7.855 55.93 2.574 10.238 2.958 19.523 18.753 11.024 18.753-.584 0-9.668-2.7-20.188-6-19.625-6.156-22.43-6.674-27.437-5.072-12.16 3.891-36.32 11.072-37.252 11.072-.766 0-1.147-2.618-1.147-7.883m33-38.057c0-15.91-.216-15.502 6.913-13.088 4.752 1.609 5.739 1.655 8.722.408 3.365-1.406 3.365-1.406 3.365 12.608v14.013h-19zm4.077-22.625c-8.441-7.963-9.011-9.343-5.67-13.724 5.642-7.397 9.837-22.71 6.222-22.71-1.05 0-1.63.848-1.63 2.385 0 10.083-8.54 21.576-16.609 22.352-12.629 1.213-19.738-12.589-10.99-21.337 4.006-4.006 5.6-4.294 5.6-1.01 0 6.448 7.452 9.111 11.694 4.18 3.24-3.767 2.994-6.182-.705-6.922-5.712-1.142-6.583-9.77-1.225-12.135 2.785-1.23 2.812-.975-.758-7.2-8.796-15.336-29.71-15.577-26.655-.307 1.062 5.31-7.171 3.17-13.71-3.564-16.787-17.284 4.408-43.447 27.129-33.488 10.44 4.576 21.775 21.482 24.575 36.653 1.316 7.129 3.655 9.96 3.655 4.424 0-10.194-5.216-24.142-12.87-34.417-5.625-7.55-5.564-7.302-4.079-16.614 1.752-10.985 8.377-23.214 18.27-33.722 5.955-6.325 6.113-6.276 14.371 4.418 14.678 19.009 18.897 34.049 12.16 43.35-8.537 11.784-17.292 38.855-12.845 39.716 1.133.219 2.036-1.924 3.64-8.64 5.73-23.988 17.582-36.622 34.353-36.622 24.907 0 31.189 29.29 8.5 39.633-5.945 2.71-6.5 2.481-6.5-2.678 0-8.21-7.845-12.172-15.875-8.02-5.923 3.064-14.396 15.308-11.305 16.339 6.616 2.205 4.682 13.226-2.32 13.226-3.006 0-3.071.552-.55 4.686 3.46 5.676 9.621 6.852 12.056 2.302.915-1.71.745-1.997-1.221-2.051-2.285-.064-2.285-.064-.035-.968 1.237-.497 2.25-1.58 2.25-2.404 0-2.478 4.194-.31 6.839 3.535 3.382 4.916 2.644 11.878-1.72 16.243-8.917 8.916-23.673.162-27.164-16.115-.751-3.503-1.62-5.228-2.632-5.228-3.373 0 1.06 16.113 6.557 23.832 2.39 3.357 1.835 4.624-5.257 11.992-7.881 8.19-7.527 8.175-15.546.61" style="fill:#000"/></g></svg>