<svg
   version="1.1"
   id="svg1"
   width="1024"
   height="1024"
   viewBox="0 0 1024 1024"
   sodipodi:docname="icon_jean_d_arc.svg"
   inkscape:version="1.4.2 (f4327f4, 2025-05-13)"
   xmlns:inkscape="http://www.inkscape.org/namespaces/inkscape"
   xmlns:sodipodi="http://sodipodi.sourceforge.net/DTD/sodipodi-0.dtd"
   xmlns="http://www.w3.org/2000/svg"
   xmlns:svg="http://www.w3.org/2000/svg">
  <defs
     id="defs1" />
  <sodipodi:namedview
     id="namedview1"
     pagecolor="#505050"
     bordercolor="#eeeeee"
     borderopacity="1"
     inkscape:showpageshadow="0"
     inkscape:pageopacity="0"
     inkscape:pagecheckerboard="0"
     inkscape:deskcolor="#505050"
     inkscape:zoom="0.70710678"
     inkscape:cx="283.54982"
     inkscape:cy="497.09607"
     inkscape:window-width="2560"
     inkscape:window-height="1009"
     inkscape:window-x="-8"
     inkscape:window-y="-8"
     inkscape:window-maximized="1"
     inkscape:current-layer="g1" />
  <g
     inkscape:groupmode="layer"
     inkscape:label="Image"
     id="g1">
    <path
       style="fill:#000000;fill-opacity:1;stroke-width:1.88913"
       d="m 490.58222,1009.7723 c -16.10467,-9.603 -18.66191,-11.36058 -53.21028,-36.5724 -26.9293,-19.65176 -65.58679,-53.4338 -80.14409,-70.03642 C 270.25374,803.96947 235.314,717.23265 224.48551,573.63514 221.14155,529.29033 219.6187,360.14067 222.53969,357.5046 c 1.00068,-0.90305 14.5641,-5.63646 30.14098,-10.51876 53.34629,-16.72043 117.07309,-37.60092 159.65071,-52.31052 23.42342,-8.0923 44.89912,-15.29394 47.72377,-16.00369 5.13571,-1.29045 5.13571,-1.29045 4.61466,28.61247 l -0.5211,29.90293 -16.99296,5.45143 c -9.34613,2.99818 -24.6398,7.33527 -33.98593,9.63787 -14.42247,3.55321 -17.35524,4.93592 -19.38789,9.14055 -1.55532,3.21735 -4.53396,5.40551 -8.49648,6.24185 -3.35587,0.70828 -23.94419,7.09348 -45.75184,14.18938 -21.80762,7.09581 -44.34349,14.33059 -50.07965,16.07709 -14.78185,4.50074 -13.72761,129.35744 1.91323,226.5869 0.9979,6.20333 1.41794,11.67571 0.93342,12.16079 -0.48455,0.48507 -0.15067,1.81082 0.74207,2.94604 0.89265,1.1353 4.34443,13.97256 7.67056,28.52721 7.91187,34.62112 12.42666,50.04029 19.37122,66.15777 3.13561,7.27737 6.97971,16.20864 8.54247,19.84733 27.19795,63.32693 71.349,117.20161 135.52178,165.36835 40.21733,30.18627 39.62725,29.96938 54.12464,19.8885 123.861,-86.12815 175.34357,-165.59887 202.66758,-312.84679 11.85901,-63.90758 16.22762,-222.65255 6.2308,-226.41277 -2.39375,-0.90041 -11.57428,-3.59338 -20.4012,-5.98451 -33.64363,-9.11359 -95.16377,-30.1574 -98.79729,-33.79501 -3.32257,-3.3263 -33.60428,-14.27534 -55.55549,-20.08732 -8.11733,-2.14931 -13.58529,-62.45447 -5.66432,-62.47092 1.29805,-10e-4 37.62054,11.80083 80.7166,26.22992 61.72298,20.66568 128.06351,42.11888 162.08595,52.41548 4.62468,1.39963 1.94832,191.04718 -3.30348,234.08381 -23.8581,195.50858 -88.73422,301.89693 -250.18154,410.26482 -31.44056,21.1037 -26.70257,20.1695 -45.48874,8.9675 z m 8.06392,-114.3465 c -12.83123,-15.77132 -31.53963,-49.12124 -33.53527,-59.7806 -3.00948,-16.07454 -2.5415,-174.11481 0.5156,-174.11481 1.33198,0 9.61604,6.20496 18.40905,13.78885 l 15.98724,13.78887 0.94407,78.35939 c 0.95147,78.97513 1.90251,89.41364 7.62964,83.74051 1.57904,-1.56413 2.4375,-24.78286 3.03963,-82.21572 0.83915,-80.03594 0.83915,-80.03594 10.51623,-88.55081 26.28244,-23.12587 24.08489,-27.47756 24.49229,48.50078 0.65583,122.31674 2.66475,110.44542 -26.00976,153.70216 -15.42184,23.26455 -14.0898,22.49025 -21.98872,12.78138 z M 422.61035,768.01776 c -8.37829,-3.62231 -26.03552,-14.28999 -39.65026,-23.95472 l -24.5454,-17.42416 -0.94405,-50.03874 c -1.03349,-54.77904 -0.70755,-62.32524 2.69187,-62.32524 2.10869,0 33.01681,11.80796 64.33594,24.57859 13.21677,5.3893 13.21677,5.3893 14.24654,28.68226 1.72775,39.08148 2.01217,107.41995 0.44619,107.21029 -0.81178,-0.10848 -8.27315,-3.13639 -16.58083,-6.72828 z m 149.88467,-32.2962 c -0.121,-21.57215 -0.33336,-51.08001 -0.47204,-65.573 l -0.25213,-26.35093 19.82513,-7.44443 c 10.90382,-4.09449 28.47,-10.73706 39.03595,-14.76141 10.56595,-4.02433 20.12449,-7.31689 21.2412,-7.31689 1.4022,0 2.0304,17.11555 2.0304,55.3199 v 55.31976 l -21.13779,15.85774 c -11.62581,8.7217 -27.98153,19.17746 -36.34607,23.235 -8.36454,4.05753 -16.68363,8.17812 -18.48684,9.1568 -1.80323,0.97878 -3.71495,1.77956 -4.24824,1.77956 -0.53332,0 -1.06864,-17.64993 -1.18957,-39.2221 z m 19.86397,-168.89009 -60.60049,-29.8708 -0.3523,-57.93623 c -0.3523,-57.93619 -0.3523,-57.93619 6.78942,-53.64163 3.92796,2.362 20.31127,13.02843 36.4074,23.70329 64.11554,42.52074 79.15385,59.58016 79.38343,90.05254 0.38064,50.51969 0.34758,56.42591 -0.31893,56.97762 -0.38942,0.32228 -27.97827,-12.85586 -61.30853,-29.28479 z m -234.88835,-8.26989 c 0,-36.94403 0,-36.94403 10.65523,-51.57494 15.67501,-21.52375 39.60281,-43.92932 46.91372,-43.92932 0.62311,0 7.25449,-4.13368 14.73643,-9.18597 7.48193,-5.05227 19.55106,-12.82807 26.82028,-17.27952 7.2692,-4.45136 15.1472,-9.35915 17.50667,-10.90606 4.28992,-2.81261 4.28992,-2.81261 4.09403,54.7822 -0.19591,57.59479 -0.19591,57.59479 -9.0102,61.93178 -4.84785,2.38539 -30.40194,14.47136 -56.78683,26.85781 -26.38489,12.38642 -49.53783,23.35943 -51.45092,24.38452 -3.32398,1.7809 -3.47841,0.22351 -3.47841,-35.0805 z m 66.08375,-172.78292 c 0,-12.5795 0.51485,-15.04526 3.3042,-15.82543 1.81731,-0.50828 16.53327,-4.82177 32.70215,-9.5856 48.6419,-14.33132 37.4324,-14.84772 105.60173,4.86511 19.33112,5.59004 36.86283,35.44723 20.8141,35.44723 -1.10111,0 -18.25384,-5.10355 -38.11715,-11.34133 -37.05298,-11.63575 -42.34982,-12.61613 -51.80315,-9.58757 -22.95896,7.35532 -68.57499,20.9289 -70.33477,20.9289 -1.44746,0 -2.16711,-4.94834 -2.16711,-14.90131 z m 62.30757,-71.9372 c 0,-30.07376 -0.40729,-29.30179 13.05317,-24.73986 8.97219,3.04077 10.8351,3.12805 16.46872,0.77146 6.35215,-2.65702 6.35215,-2.65702 6.35215,23.8314 v 26.48851 h -17.93703 -17.93701 z m 7.69795,-42.76651 c -15.93779,-15.05177 -17.01404,-17.65973 -10.70484,-25.94077 10.65261,-13.98193 18.57323,-42.92728 11.74661,-42.92728 -1.9822,0 -3.0754,1.60255 -3.0754,4.50842 0,19.05925 -16.12535,40.78339 -31.36039,42.24897 -23.84539,2.29378 -37.26879,-23.79482 -20.75138,-40.3307 7.56411,-7.57259 10.5734,-8.11634 10.5734,-1.91061 0,12.18858 14.06998,17.22349 22.07973,7.90117 6.11705,-7.11942 5.65244,-11.68471 -1.33141,-13.08306 -10.78487,-2.15935 -12.42895,-18.46633 -2.31262,-22.93762 5.25947,-2.32463 5.31011,-1.84283 -1.43088,-13.60967 -16.60741,-28.98921 -56.09407,-29.44433 -50.32766,-0.58002 2.00499,10.03618 -13.53988,5.99065 -25.88702,-6.73704 -31.69459,-32.6714 8.32368,-82.12458 51.22338,-63.300081 19.71167,8.649541 41.1144,40.606471 46.40095,69.282351 2.4842,13.47484 6.90012,18.82666 6.90012,8.36245 0,-19.26823 -9.84784,-45.63281 -24.30026,-65.05654 -10.61892,-14.271594 -10.50373,-13.801815 -7.70003,-31.402857 3.30773,-20.765155 15.81592,-43.878982 34.49419,-63.741621 11.24382,-11.95676326 11.54306,-11.86466074 27.13549,8.350483 27.7137,35.930184 35.67922,64.359928 22.95825,81.940385 -16.11747,22.2744 -32.64849,73.44451 -24.25267,75.07162 2.13985,0.41466 3.84466,-3.63569 6.87425,-16.33209 10.81942,-45.34207 33.19467,-69.221858 64.86048,-69.221858 47.02758,0 58.88821,55.364108 16.04891,74.914458 -11.22437,5.12237 -12.27269,4.68998 -12.27269,-5.06222 0,-15.51725 -14.81125,-23.00763 -29.97335,-15.15824 -11.18402,5.78999 -27.18106,28.93521 -21.34492,30.88274 12.49118,4.16836 8.84066,25.00118 -4.38092,25.00118 -5.67568,0 -5.79787,1.04281 -1.03802,8.85785 6.53434,10.72858 18.16545,12.95194 22.7632,4.35133 1.72804,-3.23252 1.40559,-3.77485 -2.30563,-3.8779 -4.31468,-0.11967 -4.31468,-0.11967 -0.0664,-1.82931 2.33653,-0.94029 4.24823,-2.98545 4.24823,-4.54485 0,-4.68251 7.91889,-0.58421 12.913,6.68304 6.385,9.29114 4.9925,22.4524 -3.24846,30.70263 -16.8348,16.85359 -44.6962,0.30536 -51.28724,-30.46204 -1.41804,-6.6197 -3.05822,-9.88075 -4.96952,-9.88075 -6.36808,0 2.00173,30.45582 12.37958,45.04647 4.5134,6.34559 3.46458,8.7411 -9.92427,22.66829 -14.88131,15.47952 -14.21195,15.45326 -29.35372,1.15329 z"
       id="path1"
       sodipodi:nodetypes="ssssssssscssssssssssssssssssscssssssssscssssssssscsssssssscsssscsssssscsssssssssssssssssssssssssssssscccssssssssssssssssssssssssssssssssssssssssss" />
  </g>
</svg>
